<mxfile host="app.diagrams.net" modified="2024-02-01T17:54:24.023Z" agent="Mozilla/5.0 (Windows NT 10.0; Win64; x64) AppleWebKit/537.36 (KHTML, like Gecko) Chrome/120.0.0.0 Safari/537.36" etag="KjNq_WqkeN1YAjV_QM0E" version="23.1.0" type="device">
  <diagram name="Page-1" id="Is2Jfq8Slkn5pClY6XB5">
    <mxGraphModel dx="3502" dy="2091" grid="1" gridSize="10" guides="1" tooltips="1" connect="1" arrows="1" fold="1" page="1" pageScale="1" pageWidth="1169" pageHeight="827" math="0" shadow="0">
      <root>
        <mxCell id="0" />
        <mxCell id="1" parent="0" />
        <mxCell id="ONhlE9jLqwU_5p9WtECv-3" value="" style="endArrow=none;html=1;rounded=0;entryX=0.25;entryY=0;entryDx=0;entryDy=0;" parent="1" target="ONhlE9jLqwU_5p9WtECv-26" edge="1">
          <mxGeometry width="50" height="50" relative="1" as="geometry">
            <mxPoint x="320" y="60" as="sourcePoint" />
            <mxPoint x="380" y="130" as="targetPoint" />
          </mxGeometry>
        </mxCell>
        <mxCell id="ONhlE9jLqwU_5p9WtECv-10" value="" style="endArrow=none;html=1;rounded=0;entryX=0;entryY=0;entryDx=0;entryDy=0;" parent="1" target="ONhlE9jLqwU_5p9WtECv-26" edge="1">
          <mxGeometry width="50" height="50" relative="1" as="geometry">
            <mxPoint x="190" y="60" as="sourcePoint" />
            <mxPoint x="359.5999999999999" y="127" as="targetPoint" />
          </mxGeometry>
        </mxCell>
        <mxCell id="ONhlE9jLqwU_5p9WtECv-11" value="" style="endArrow=none;html=1;rounded=0;entryX=0.6;entryY=0;entryDx=0;entryDy=0;entryPerimeter=0;" parent="1" target="ONhlE9jLqwU_5p9WtECv-26" edge="1">
          <mxGeometry width="50" height="50" relative="1" as="geometry">
            <mxPoint x="420" y="62" as="sourcePoint" />
            <mxPoint x="418" y="130" as="targetPoint" />
          </mxGeometry>
        </mxCell>
        <mxCell id="ONhlE9jLqwU_5p9WtECv-12" value="" style="endArrow=none;html=1;rounded=0;entryX=0.75;entryY=0;entryDx=0;entryDy=0;exitX=0.384;exitY=1.015;exitDx=0;exitDy=0;exitPerimeter=0;" parent="1" source="ONhlE9jLqwU_5p9WtECv-22" target="ONhlE9jLqwU_5p9WtECv-26" edge="1">
          <mxGeometry width="50" height="50" relative="1" as="geometry">
            <mxPoint x="580" y="64" as="sourcePoint" />
            <mxPoint x="440" y="130" as="targetPoint" />
          </mxGeometry>
        </mxCell>
        <mxCell id="ONhlE9jLqwU_5p9WtECv-16" value="" style="endArrow=none;dashed=1;html=1;dashPattern=1 3;strokeWidth=2;rounded=0;entryX=0.5;entryY=1;entryDx=0;entryDy=0;exitX=0.604;exitY=0;exitDx=0;exitDy=0;exitPerimeter=0;" parent="1" edge="1" target="ONhlE9jLqwU_5p9WtECv-18" source="ONhlE9jLqwU_5p9WtECv-22">
          <mxGeometry width="50" height="50" relative="1" as="geometry">
            <mxPoint x="590" y="10" as="sourcePoint" />
            <mxPoint x="590" y="-30" as="targetPoint" />
          </mxGeometry>
        </mxCell>
        <mxCell id="ONhlE9jLqwU_5p9WtECv-18" value="Age" style="ellipse;whiteSpace=wrap;html=1;align=center;dashed=1;" parent="1" vertex="1">
          <mxGeometry x="500" y="-50" width="100" height="40" as="geometry" />
        </mxCell>
        <mxCell id="ONhlE9jLqwU_5p9WtECv-20" value="UserName" style="ellipse;whiteSpace=wrap;html=1;align=center;fontStyle=4;" parent="1" vertex="1">
          <mxGeometry x="-910" y="348" width="100" height="40" as="geometry" />
        </mxCell>
        <mxCell id="ONhlE9jLqwU_5p9WtECv-21" value="Aadhar No" style="ellipse;whiteSpace=wrap;html=1;align=center;" parent="1" vertex="1">
          <mxGeometry x="370" y="20" width="100" height="40" as="geometry" />
        </mxCell>
        <mxCell id="ONhlE9jLqwU_5p9WtECv-22" value="DOB" style="ellipse;whiteSpace=wrap;html=1;align=center;" parent="1" vertex="1">
          <mxGeometry x="479.6" y="40" width="100" height="40" as="geometry" />
        </mxCell>
        <mxCell id="ONhlE9jLqwU_5p9WtECv-23" value="Pan No" style="ellipse;whiteSpace=wrap;html=1;align=center;" parent="1" vertex="1">
          <mxGeometry x="260" y="20" width="100" height="40" as="geometry" />
        </mxCell>
        <mxCell id="ONhlE9jLqwU_5p9WtECv-25" value="Address" style="ellipse;whiteSpace=wrap;html=1;align=center;" parent="1" vertex="1">
          <mxGeometry x="140" y="20" width="100" height="40" as="geometry" />
        </mxCell>
        <mxCell id="ONhlE9jLqwU_5p9WtECv-26" value="User" style="rounded=1;arcSize=10;whiteSpace=wrap;html=1;align=center;" parent="1" vertex="1">
          <mxGeometry x="265" y="150" width="100" height="40" as="geometry" />
        </mxCell>
        <mxCell id="CUSw_jtfS_rc9JxpGt8a-2" value="Name" style="ellipse;whiteSpace=wrap;html=1;align=center;" parent="1" vertex="1">
          <mxGeometry x="50" y="80" width="100" height="40" as="geometry" />
        </mxCell>
        <mxCell id="CUSw_jtfS_rc9JxpGt8a-5" value="" style="endArrow=none;html=1;rounded=0;entryX=0;entryY=0.25;entryDx=0;entryDy=0;exitX=1;exitY=0.5;exitDx=0;exitDy=0;" parent="1" source="CUSw_jtfS_rc9JxpGt8a-2" target="ONhlE9jLqwU_5p9WtECv-26" edge="1">
          <mxGeometry width="50" height="50" relative="1" as="geometry">
            <mxPoint x="200" y="70" as="sourcePoint" />
            <mxPoint x="378" y="146" as="targetPoint" />
          </mxGeometry>
        </mxCell>
        <mxCell id="CUSw_jtfS_rc9JxpGt8a-7" value="Add" style="shape=rhombus;perimeter=rhombusPerimeter;whiteSpace=wrap;html=1;align=center;" parent="1" vertex="1">
          <mxGeometry x="255" y="418" width="120" height="60" as="geometry" />
        </mxCell>
        <mxCell id="CUSw_jtfS_rc9JxpGt8a-8" value="" style="endArrow=none;html=1;rounded=0;entryX=0.5;entryY=0;entryDx=0;entryDy=0;exitX=0.5;exitY=1;exitDx=0;exitDy=0;" parent="1" source="ONhlE9jLqwU_5p9WtECv-26" target="CUSw_jtfS_rc9JxpGt8a-7" edge="1">
          <mxGeometry width="50" height="50" relative="1" as="geometry">
            <mxPoint x="430" y="212" as="sourcePoint" />
            <mxPoint x="430" y="290" as="targetPoint" />
          </mxGeometry>
        </mxCell>
        <mxCell id="CUSw_jtfS_rc9JxpGt8a-9" value="Incident Type Class" style="swimlane;fontStyle=0;childLayout=stackLayout;horizontal=1;startSize=26;horizontalStack=0;resizeParent=1;resizeParentMax=0;resizeLast=0;collapsible=1;marginBottom=0;align=center;fontSize=14;" parent="1" vertex="1">
          <mxGeometry x="109.6" y="635" width="140" height="140" as="geometry">
            <mxRectangle x="350" y="630" width="160" height="30" as="alternateBounds" />
          </mxGeometry>
        </mxCell>
        <mxCell id="CUSw_jtfS_rc9JxpGt8a-10" value="Lost Property" style="text;strokeColor=none;fillColor=none;spacingLeft=4;spacingRight=4;overflow=hidden;rotatable=0;points=[[0,0.5],[1,0.5]];portConstraint=eastwest;fontSize=12;whiteSpace=wrap;html=1;" parent="CUSw_jtfS_rc9JxpGt8a-9" vertex="1">
          <mxGeometry y="26" width="140" height="30" as="geometry" />
        </mxCell>
        <mxCell id="CUSw_jtfS_rc9JxpGt8a-11" value="Petit Larcency" style="text;strokeColor=none;fillColor=none;spacingLeft=4;spacingRight=4;overflow=hidden;rotatable=0;points=[[0,0.5],[1,0.5]];portConstraint=eastwest;fontSize=12;whiteSpace=wrap;html=1;" parent="CUSw_jtfS_rc9JxpGt8a-9" vertex="1">
          <mxGeometry y="56" width="140" height="30" as="geometry" />
        </mxCell>
        <mxCell id="CUSw_jtfS_rc9JxpGt8a-12" value="Criminal mischef" style="text;strokeColor=none;fillColor=none;spacingLeft=4;spacingRight=4;overflow=hidden;rotatable=0;points=[[0,0.5],[1,0.5]];portConstraint=eastwest;fontSize=12;whiteSpace=wrap;html=1;" parent="CUSw_jtfS_rc9JxpGt8a-9" vertex="1">
          <mxGeometry y="86" width="140" height="24" as="geometry" />
        </mxCell>
        <mxCell id="CUSw_jtfS_rc9JxpGt8a-13" value="Graffitti" style="text;strokeColor=none;fillColor=none;spacingLeft=4;spacingRight=4;overflow=hidden;rotatable=0;points=[[0,0.5],[1,0.5]];portConstraint=eastwest;fontSize=12;whiteSpace=wrap;html=1;" parent="CUSw_jtfS_rc9JxpGt8a-9" vertex="1">
          <mxGeometry y="110" width="140" height="30" as="geometry" />
        </mxCell>
        <mxCell id="CUSw_jtfS_rc9JxpGt8a-16" value="" style="endArrow=none;html=1;rounded=0;exitX=0;exitY=0.5;exitDx=0;exitDy=0;" parent="1" source="CUSw_jtfS_rc9JxpGt8a-7" edge="1">
          <mxGeometry width="50" height="50" relative="1" as="geometry">
            <mxPoint x="420" y="330" as="sourcePoint" />
            <mxPoint x="170" y="450" as="targetPoint" />
          </mxGeometry>
        </mxCell>
        <mxCell id="CUSw_jtfS_rc9JxpGt8a-17" value="" style="endArrow=none;html=1;rounded=0;" parent="1" edge="1">
          <mxGeometry width="50" height="50" relative="1" as="geometry">
            <mxPoint x="169.6" y="595" as="sourcePoint" />
            <mxPoint x="170" y="630" as="targetPoint" />
          </mxGeometry>
        </mxCell>
        <mxCell id="CUSw_jtfS_rc9JxpGt8a-18" value="Incident Id" style="ellipse;whiteSpace=wrap;html=1;align=center;fontStyle=4;" parent="1" vertex="1">
          <mxGeometry x="-40" y="620" width="100" height="40" as="geometry" />
        </mxCell>
        <mxCell id="CUSw_jtfS_rc9JxpGt8a-19" value="" style="endArrow=none;html=1;rounded=0;exitX=0;exitY=0.5;exitDx=0;exitDy=0;entryX=0.5;entryY=0;entryDx=0;entryDy=0;" parent="1" target="CUSw_jtfS_rc9JxpGt8a-18" edge="1">
          <mxGeometry width="50" height="50" relative="1" as="geometry">
            <mxPoint x="119.6" y="570" as="sourcePoint" />
            <mxPoint x="19.999999999999858" y="612" as="targetPoint" />
          </mxGeometry>
        </mxCell>
        <mxCell id="CUSw_jtfS_rc9JxpGt8a-21" value="Incident Status" style="swimlane;childLayout=stackLayout;horizontal=1;startSize=30;horizontalStack=0;rounded=1;fontSize=14;fontStyle=0;strokeWidth=2;resizeParent=0;resizeLast=1;shadow=0;dashed=0;align=center;arcSize=4;whiteSpace=wrap;html=1;" parent="1" vertex="1">
          <mxGeometry x="319.6" y="625" width="160" height="120" as="geometry">
            <mxRectangle x="560" y="620" width="130" height="30" as="alternateBounds" />
          </mxGeometry>
        </mxCell>
        <mxCell id="CUSw_jtfS_rc9JxpGt8a-22" value="active&lt;br&gt;Initialised&lt;br&gt;closed&lt;br&gt;verified" style="align=left;strokeColor=none;fillColor=none;spacingLeft=4;fontSize=12;verticalAlign=top;resizable=0;rotatable=0;part=1;html=1;" parent="CUSw_jtfS_rc9JxpGt8a-21" vertex="1">
          <mxGeometry y="30" width="160" height="90" as="geometry" />
        </mxCell>
        <mxCell id="CUSw_jtfS_rc9JxpGt8a-23" value="" style="endArrow=none;html=1;rounded=0;exitX=0.138;exitY=-0.087;exitDx=0;exitDy=0;entryX=1;entryY=0.5;entryDx=0;entryDy=0;exitPerimeter=0;" parent="1" source="CUSw_jtfS_rc9JxpGt8a-21" edge="1">
          <mxGeometry width="50" height="50" relative="1" as="geometry">
            <mxPoint x="129.6" y="580" as="sourcePoint" />
            <mxPoint x="219.6" y="570" as="targetPoint" />
          </mxGeometry>
        </mxCell>
        <mxCell id="CUSw_jtfS_rc9JxpGt8a-24" value="Incident" style="rounded=1;arcSize=10;whiteSpace=wrap;html=1;align=center;" parent="1" vertex="1">
          <mxGeometry x="119.6" y="550" width="100" height="40" as="geometry" />
        </mxCell>
        <mxCell id="CUSw_jtfS_rc9JxpGt8a-25" value="Station Head" style="rounded=1;arcSize=10;whiteSpace=wrap;html=1;align=center;" parent="1" vertex="1">
          <mxGeometry x="-290" y="388" width="100" height="40" as="geometry" />
        </mxCell>
        <mxCell id="CUSw_jtfS_rc9JxpGt8a-29" value="officier" style="rounded=1;arcSize=10;whiteSpace=wrap;html=1;align=center;" parent="1" vertex="1">
          <mxGeometry x="-140" y="332" width="100" height="40" as="geometry" />
        </mxCell>
        <mxCell id="LYexVV14n5fuYw4He_lb-5" value="HeadName" style="ellipse;whiteSpace=wrap;html=1;align=center;" parent="1" vertex="1">
          <mxGeometry x="-320" y="510" width="100" height="40" as="geometry" />
        </mxCell>
        <mxCell id="LYexVV14n5fuYw4He_lb-6" value="Email" style="ellipse;whiteSpace=wrap;html=1;align=center;" parent="1" vertex="1">
          <mxGeometry x="-430" y="496" width="100" height="40" as="geometry" />
        </mxCell>
        <mxCell id="LYexVV14n5fuYw4He_lb-9" value="Email" style="ellipse;whiteSpace=wrap;html=1;align=center;" parent="1" vertex="1">
          <mxGeometry x="40" y="332" width="100" height="40" as="geometry" />
        </mxCell>
        <mxCell id="LYexVV14n5fuYw4He_lb-10" value="Password" style="ellipse;whiteSpace=wrap;html=1;align=center;" parent="1" vertex="1">
          <mxGeometry x="-900" y="428" width="100" height="40" as="geometry" />
        </mxCell>
        <mxCell id="LYexVV14n5fuYw4He_lb-11" value="Officier Name" style="ellipse;whiteSpace=wrap;html=1;align=center;" parent="1" vertex="1">
          <mxGeometry x="40" y="278" width="100" height="40" as="geometry" />
        </mxCell>
        <mxCell id="LYexVV14n5fuYw4He_lb-15" value="" style="endArrow=none;html=1;rounded=0;exitX=0;exitY=0.5;exitDx=0;exitDy=0;" parent="1" edge="1">
          <mxGeometry width="50" height="50" relative="1" as="geometry">
            <mxPoint x="40.000000000020464" y="248" as="sourcePoint" />
            <mxPoint x="-40" y="328" as="targetPoint" />
          </mxGeometry>
        </mxCell>
        <mxCell id="LYexVV14n5fuYw4He_lb-16" value="" style="endArrow=none;html=1;rounded=0;exitX=0;exitY=0.5;exitDx=0;exitDy=0;entryX=1;entryY=0.25;entryDx=0;entryDy=0;" parent="1" source="LYexVV14n5fuYw4He_lb-11" target="CUSw_jtfS_rc9JxpGt8a-29" edge="1">
          <mxGeometry width="50" height="50" relative="1" as="geometry">
            <mxPoint x="82" y="463" as="sourcePoint" />
            <mxPoint x="-40" y="418" as="targetPoint" />
          </mxGeometry>
        </mxCell>
        <mxCell id="LYexVV14n5fuYw4He_lb-17" value="" style="endArrow=none;html=1;rounded=0;exitX=0;exitY=0.5;exitDx=0;exitDy=0;entryX=1;entryY=0.5;entryDx=0;entryDy=0;" parent="1" source="LYexVV14n5fuYw4He_lb-9" target="CUSw_jtfS_rc9JxpGt8a-29" edge="1">
          <mxGeometry width="50" height="50" relative="1" as="geometry">
            <mxPoint x="44" y="373" as="sourcePoint" />
            <mxPoint x="-30" y="372" as="targetPoint" />
          </mxGeometry>
        </mxCell>
        <mxCell id="LYexVV14n5fuYw4He_lb-20" value="" style="endArrow=none;html=1;rounded=0;entryX=0.822;entryY=1.1;entryDx=0;entryDy=0;entryPerimeter=0;" parent="1" target="CUSw_jtfS_rc9JxpGt8a-25" edge="1">
          <mxGeometry width="50" height="50" relative="1" as="geometry">
            <mxPoint x="-170" y="500" as="sourcePoint" />
            <mxPoint x="-190" y="398" as="targetPoint" />
          </mxGeometry>
        </mxCell>
        <mxCell id="LYexVV14n5fuYw4He_lb-21" value="" style="endArrow=none;html=1;rounded=0;exitX=0.62;exitY=-0.1;exitDx=0;exitDy=0;entryX=0.5;entryY=1;entryDx=0;entryDy=0;exitPerimeter=0;" parent="1" source="LYexVV14n5fuYw4He_lb-5" target="CUSw_jtfS_rc9JxpGt8a-25" edge="1">
          <mxGeometry width="50" height="50" relative="1" as="geometry">
            <mxPoint x="-120" y="372" as="sourcePoint" />
            <mxPoint x="-170" y="408" as="targetPoint" />
          </mxGeometry>
        </mxCell>
        <mxCell id="LYexVV14n5fuYw4He_lb-22" value="" style="endArrow=none;html=1;rounded=0;exitX=0.68;exitY=-0.025;exitDx=0;exitDy=0;exitPerimeter=0;" parent="1" source="LYexVV14n5fuYw4He_lb-6" edge="1">
          <mxGeometry width="50" height="50" relative="1" as="geometry">
            <mxPoint x="-110" y="382" as="sourcePoint" />
            <mxPoint x="-280" y="430" as="targetPoint" />
          </mxGeometry>
        </mxCell>
        <mxCell id="LYexVV14n5fuYw4He_lb-27" value="" style="endArrow=none;html=1;rounded=0;exitX=0.504;exitY=0;exitDx=0;exitDy=0;exitPerimeter=0;" parent="1" edge="1" source="CUSw_jtfS_rc9JxpGt8a-24">
          <mxGeometry width="50" height="50" relative="1" as="geometry">
            <mxPoint x="170" y="540" as="sourcePoint" />
            <mxPoint x="170" y="450" as="targetPoint" />
          </mxGeometry>
        </mxCell>
        <mxCell id="LYexVV14n5fuYw4He_lb-34" value="has" style="shape=rhombus;perimeter=rhombusPerimeter;whiteSpace=wrap;html=1;align=center;" parent="1" vertex="1">
          <mxGeometry x="-310" y="298" width="120" height="60" as="geometry" />
        </mxCell>
        <mxCell id="LYexVV14n5fuYw4He_lb-44" value="" style="endArrow=none;html=1;rounded=0;entryX=0.388;entryY=0.038;entryDx=0;entryDy=0;exitX=0.5;exitY=1;exitDx=0;exitDy=0;entryPerimeter=0;" parent="1" source="LYexVV14n5fuYw4He_lb-34" target="CUSw_jtfS_rc9JxpGt8a-25" edge="1">
          <mxGeometry relative="1" as="geometry">
            <mxPoint x="-430" y="348" as="sourcePoint" />
            <mxPoint x="-270" y="348" as="targetPoint" />
          </mxGeometry>
        </mxCell>
        <mxCell id="LYexVV14n5fuYw4He_lb-45" value="" style="endArrow=none;html=1;rounded=0;" parent="1" edge="1">
          <mxGeometry relative="1" as="geometry">
            <mxPoint x="-250" y="278" as="sourcePoint" />
            <mxPoint x="-100" y="278" as="targetPoint" />
          </mxGeometry>
        </mxCell>
        <mxCell id="LYexVV14n5fuYw4He_lb-46" value="" style="endArrow=none;html=1;rounded=0;entryX=0.5;entryY=0;entryDx=0;entryDy=0;" parent="1" target="LYexVV14n5fuYw4He_lb-34" edge="1">
          <mxGeometry width="50" height="50" relative="1" as="geometry">
            <mxPoint x="-250.59000000000003" y="278" as="sourcePoint" />
            <mxPoint x="-250.19000000000005" y="313" as="targetPoint" />
          </mxGeometry>
        </mxCell>
        <mxCell id="LYexVV14n5fuYw4He_lb-48" value="" style="endArrow=none;html=1;rounded=0;entryX=0.404;entryY=-0.115;entryDx=0;entryDy=0;entryPerimeter=0;" parent="1" target="CUSw_jtfS_rc9JxpGt8a-29" edge="1">
          <mxGeometry relative="1" as="geometry">
            <mxPoint x="-100" y="278" as="sourcePoint" />
            <mxPoint x="-241" y="400" as="targetPoint" />
          </mxGeometry>
        </mxCell>
        <mxCell id="LYexVV14n5fuYw4He_lb-49" value="1" style="text;html=1;align=center;verticalAlign=middle;resizable=0;points=[];autosize=1;strokeColor=none;fillColor=none;" parent="1" vertex="1">
          <mxGeometry x="-295" y="356" width="30" height="30" as="geometry" />
        </mxCell>
        <mxCell id="LYexVV14n5fuYw4He_lb-50" value="N" style="text;html=1;align=center;verticalAlign=middle;resizable=0;points=[];autosize=1;strokeColor=none;fillColor=none;" parent="1" vertex="1">
          <mxGeometry x="-175" y="246" width="30" height="30" as="geometry" />
        </mxCell>
        <mxCell id="LYexVV14n5fuYw4He_lb-51" value="1" style="text;html=1;align=center;verticalAlign=middle;resizable=0;points=[];autosize=1;strokeColor=none;fillColor=none;" parent="1" vertex="1">
          <mxGeometry x="319.6" y="233" width="30" height="30" as="geometry" />
        </mxCell>
        <mxCell id="LYexVV14n5fuYw4He_lb-52" value="N" style="text;html=1;align=center;verticalAlign=middle;resizable=0;points=[];autosize=1;strokeColor=none;fillColor=none;" parent="1" vertex="1">
          <mxGeometry x="175" y="488" width="30" height="30" as="geometry" />
        </mxCell>
        <mxCell id="LYexVV14n5fuYw4He_lb-53" value="HeadID" style="ellipse;whiteSpace=wrap;html=1;align=center;fontStyle=4;" parent="1" vertex="1">
          <mxGeometry x="-210" y="510" width="100" height="40" as="geometry" />
        </mxCell>
        <mxCell id="LYexVV14n5fuYw4He_lb-54" value="OffierID" style="ellipse;whiteSpace=wrap;html=1;align=center;fontStyle=4;" parent="1" vertex="1">
          <mxGeometry x="40" y="228" width="100" height="40" as="geometry" />
        </mxCell>
        <mxCell id="LYexVV14n5fuYw4He_lb-57" value="Update" style="shape=rhombus;perimeter=rhombusPerimeter;whiteSpace=wrap;html=1;align=center;" parent="1" vertex="1">
          <mxGeometry x="-40" y="386" width="120" height="60" as="geometry" />
        </mxCell>
        <mxCell id="4Y9UTGS7CP9HdJvThMW_-1" value="Authentication" style="rounded=1;arcSize=10;whiteSpace=wrap;html=1;align=center;" vertex="1" parent="1">
          <mxGeometry x="-730" y="376" width="100" height="40" as="geometry" />
        </mxCell>
        <mxCell id="4Y9UTGS7CP9HdJvThMW_-3" value="" style="endArrow=none;html=1;rounded=0;exitX=1;exitY=0.5;exitDx=0;exitDy=0;entryX=0;entryY=0.25;entryDx=0;entryDy=0;" edge="1" parent="1" source="ONhlE9jLqwU_5p9WtECv-20" target="4Y9UTGS7CP9HdJvThMW_-1">
          <mxGeometry width="50" height="50" relative="1" as="geometry">
            <mxPoint x="-800" y="378" as="sourcePoint" />
            <mxPoint x="-740" y="378" as="targetPoint" />
          </mxGeometry>
        </mxCell>
        <mxCell id="4Y9UTGS7CP9HdJvThMW_-4" value="" style="endArrow=none;html=1;rounded=0;entryX=0;entryY=0.75;entryDx=0;entryDy=0;exitX=1;exitY=0.5;exitDx=0;exitDy=0;" edge="1" parent="1" source="LYexVV14n5fuYw4He_lb-10" target="4Y9UTGS7CP9HdJvThMW_-1">
          <mxGeometry width="50" height="50" relative="1" as="geometry">
            <mxPoint x="-790" y="448" as="sourcePoint" />
            <mxPoint x="-740" y="398" as="targetPoint" />
          </mxGeometry>
        </mxCell>
        <mxCell id="4Y9UTGS7CP9HdJvThMW_-6" value="" style="endArrow=none;html=1;rounded=0;" edge="1" parent="1">
          <mxGeometry relative="1" as="geometry">
            <mxPoint x="-190" y="416" as="sourcePoint" />
            <mxPoint x="-40" y="416" as="targetPoint" />
          </mxGeometry>
        </mxCell>
        <mxCell id="4Y9UTGS7CP9HdJvThMW_-7" value="" style="endArrow=none;html=1;rounded=0;exitX=0.19;exitY=-0.07;exitDx=0;exitDy=0;exitPerimeter=0;" edge="1" parent="1" source="CUSw_jtfS_rc9JxpGt8a-24">
          <mxGeometry width="50" height="50" relative="1" as="geometry">
            <mxPoint x="140" y="540" as="sourcePoint" />
            <mxPoint x="140" y="420" as="targetPoint" />
          </mxGeometry>
        </mxCell>
        <mxCell id="4Y9UTGS7CP9HdJvThMW_-8" value="N" style="text;html=1;align=center;verticalAlign=middle;resizable=0;points=[];autosize=1;strokeColor=none;fillColor=none;" vertex="1" parent="1">
          <mxGeometry x="105" y="488" width="30" height="30" as="geometry" />
        </mxCell>
        <mxCell id="4Y9UTGS7CP9HdJvThMW_-9" value="" style="endArrow=none;html=1;rounded=0;entryX=1;entryY=0.5;entryDx=0;entryDy=0;" edge="1" parent="1" target="LYexVV14n5fuYw4He_lb-57">
          <mxGeometry width="50" height="50" relative="1" as="geometry">
            <mxPoint x="140" y="420" as="sourcePoint" />
            <mxPoint x="180" y="460" as="targetPoint" />
          </mxGeometry>
        </mxCell>
        <mxCell id="4Y9UTGS7CP9HdJvThMW_-11" value="Authorize" style="shape=rhombus;perimeter=rhombusPerimeter;whiteSpace=wrap;html=1;align=center;" vertex="1" parent="1">
          <mxGeometry x="-540" y="368" width="120" height="60" as="geometry" />
        </mxCell>
        <mxCell id="4Y9UTGS7CP9HdJvThMW_-12" value="" style="endArrow=none;html=1;rounded=0;entryX=0;entryY=0.5;entryDx=0;entryDy=0;exitX=1;exitY=0.5;exitDx=0;exitDy=0;" edge="1" parent="1" source="4Y9UTGS7CP9HdJvThMW_-1" target="4Y9UTGS7CP9HdJvThMW_-11">
          <mxGeometry relative="1" as="geometry">
            <mxPoint x="-630" y="390" as="sourcePoint" />
            <mxPoint x="-470" y="390" as="targetPoint" />
          </mxGeometry>
        </mxCell>
        <mxCell id="4Y9UTGS7CP9HdJvThMW_-13" value="" style="endArrow=none;html=1;rounded=0;entryX=0;entryY=0.25;entryDx=0;entryDy=0;exitX=1;exitY=0.5;exitDx=0;exitDy=0;strokeColor=#b85450;fillColor=#f8cecc;" edge="1" parent="1" source="4Y9UTGS7CP9HdJvThMW_-11" target="CUSw_jtfS_rc9JxpGt8a-25">
          <mxGeometry relative="1" as="geometry">
            <mxPoint x="-620" y="406" as="sourcePoint" />
            <mxPoint x="-530" y="408" as="targetPoint" />
          </mxGeometry>
        </mxCell>
        <mxCell id="4Y9UTGS7CP9HdJvThMW_-14" value="" style="endArrow=none;html=1;rounded=0;exitX=0.19;exitY=-0.07;exitDx=0;exitDy=0;exitPerimeter=0;fillColor=#f8cecc;strokeColor=#b85450;" edge="1" parent="1">
          <mxGeometry width="50" height="50" relative="1" as="geometry">
            <mxPoint x="-480.5" y="368" as="sourcePoint" />
            <mxPoint x="-480" y="160" as="targetPoint" />
          </mxGeometry>
        </mxCell>
        <mxCell id="4Y9UTGS7CP9HdJvThMW_-15" value="" style="endArrow=none;html=1;rounded=0;entryX=0;entryY=0.5;entryDx=0;entryDy=0;fillColor=#f8cecc;strokeColor=#b85450;" edge="1" parent="1" target="ONhlE9jLqwU_5p9WtECv-26">
          <mxGeometry relative="1" as="geometry">
            <mxPoint x="-480" y="160" as="sourcePoint" />
            <mxPoint x="-170" y="160" as="targetPoint" />
          </mxGeometry>
        </mxCell>
        <mxCell id="4Y9UTGS7CP9HdJvThMW_-16" value="" style="endArrow=none;html=1;rounded=0;fillColor=#f8cecc;strokeColor=#b85450;" edge="1" parent="1">
          <mxGeometry width="50" height="50" relative="1" as="geometry">
            <mxPoint x="-69" y="330" as="sourcePoint" />
            <mxPoint x="-70" y="170" as="targetPoint" />
          </mxGeometry>
        </mxCell>
      </root>
    </mxGraphModel>
  </diagram>
</mxfile>
